<svg viewBox="0 0 450 360" xmlns="http://www.w3.org/2000/svg">
    <g transform="translate(0,360) scale(0.1,-0.1)">
        <!-- Structure du 'A' (Bleu Foncé) -->
        <path fill="#343b58"
            d="M1954 2551 c-41 -19 -46 -27 -190 -308 -81 -158 -244 -475 -361 -703 -123 -239 -213 -426 -213 -441 0 -56 36 -69 186 -69 l132 0 158 308 c395 772 364 722 432 722 21 0 48 -7 60 -16 18 -12 162 -278 162 -299 0 -3 -62 -5 -137 -5 l-138 0 -175 -346 c-96 -190 -176 -349 -178 -355 -2 -5 68 -9 175 -9 l178 1 100 204 c55 112 106 207 114 210 8 3 60 2 117 -1 l104 -7 104 -201 103 -201 137 -3 c134 -3 137 -2 161 22 14 14 25 35 25 46 0 12 -78 173 -174 358 -95 185 -255 497 -354 693 -182 355 -202 388 -255 408 -49 19 -226 13 -273 -8z" />

        <!-- Jonction -->
        <path fill="#343b58" d="M2340 1675 c0 -3 2 -5 5 -5 3 0 5 2 5 5 0 3 -2 5 -5 5 -3 0 -5 -2 -5 -5z" />

        <!-- Structure du 'P' (Bleu Foncé) -->
        <path fill="#343b58"
            d="M2422 2483 c2 -5 37 -74 78 -154 l74 -147 146 -4 c219 -7 311 -73 310 -227 -1 -63 -84 -189 -128 -191 -4 -1 -27 -6 -52 -13 l-46 -12 71 -138 72 -138 81 41 c424 212 349 854 -113 975 -63 16 -500 23 -493 8z" />

        <!-- Correction zone centrale -->
        <path fill="#343b58" d="M2247 1519 c7 -7 15 -10 18 -7 3 3 -2 9 -12 12 -14 6 -15 5 -6 -5z" />
    </g>
</svg>